<svg width="61" height="62" viewBox="0 0 61 62" fill="none" xmlns="http://www.w3.org/2000/svg">
<ellipse rx="29.8209" ry="30.3523" transform="matrix(0.999758 -0.02198 0.0226121 0.999744 30.5 31)" fill="url(#paint0_linear)"/>
<path d="M43.2613 27.6314C43.2781 27.3712 43.289 27.1094 43.2931 26.8456C43.3106 25.7099 42.4006 24.7717 41.2645 24.7542L16.5394 24.3728C15.4033 24.3553 14.4647 25.265 14.4472 26.4007C14.3846 30.4579 15.8867 34.128 17.3394 37.6773C18.1734 39.7148 18.966 41.6527 19.4809 43.6459L18.9899 43.6383C17.8538 43.6208 16.9153 44.5305 16.8977 45.6661C16.8802 46.8018 17.7902 47.74 18.9264 47.7575L38.157 48.0541C39.2931 48.0717 40.2316 47.162 40.2492 46.0263C40.2667 44.8906 39.3567 43.9524 38.2205 43.9349L37.7297 43.9273C37.8633 43.469 38.0115 43.0141 38.1719 42.5608L41.8131 42.6169C45.9789 42.6812 49.4203 39.3456 49.4846 35.1815C49.5418 31.4764 46.8538 28.2765 43.2613 27.6314ZM42.5299 31.6859C44.1553 31.9767 45.3899 33.4251 45.3637 35.118C45.3345 37.0107 43.7702 38.5269 41.8767 38.4977L39.8587 38.4666C39.9236 38.3207 39.9888 38.1745 40.0542 38.0277C40.9689 35.9759 41.9014 33.883 42.5299 31.6859V31.6859ZM31.6957 43.8343C31.3163 43.8284 31.0041 44.1311 30.9983 44.5102C30.9924 44.8893 31.2951 45.2015 31.6745 45.2074L38.1993 45.308C38.5781 45.3138 38.8814 45.6266 38.8756 46.0051C38.8697 46.3837 38.5569 46.6869 38.1782 46.6811L18.9476 46.3845C18.5688 46.3786 18.2655 46.0659 18.2713 45.6873C18.2772 45.3088 18.59 45.0055 18.9687 45.0114L25.4932 45.112C25.8725 45.1179 26.1848 44.8152 26.1906 44.4361C26.1965 44.057 25.8937 43.7448 25.5144 43.7389L20.9023 43.6678C20.3641 41.4415 19.474 39.2659 18.611 37.1573C17.2106 33.7359 15.7625 30.198 15.8208 26.4219C15.8267 26.0433 16.1395 25.7401 16.5182 25.7459L41.2433 26.1273C41.622 26.1331 41.9253 26.4458 41.9195 26.8244C41.8612 30.6006 40.3046 34.0921 38.7994 37.4687C37.8717 39.5497 36.9146 41.697 36.308 43.9054L31.6957 43.8343ZM41.8343 41.2438L38.6894 41.1953C38.8713 40.7418 39.062 40.2876 39.2592 39.8307L41.8555 39.8708C44.5065 39.9116 46.6964 37.7891 46.7374 35.1391C46.7734 32.8033 45.0949 30.8001 42.8679 30.3529C42.9661 29.9071 43.0499 29.4568 43.1163 29.0012C46.0067 29.5687 48.1572 32.1623 48.111 35.1603C48.0584 38.5673 45.2427 41.2964 41.8343 41.2438Z" fill="#629CD8" fill-opacity="0.45"/>
<path d="M28.8258 31.6199C28.8119 31.6335 28.7926 31.6522 28.7604 31.6189L28.7604 31.619C27.7384 30.5686 26.0495 30.5426 24.9958 31.5609C24.2598 32.2719 24.0115 33.2078 24.2775 34.2673C24.8155 36.4094 27.3411 38.522 28.5041 38.8517C28.5619 38.8681 28.6214 38.8768 28.681 38.8777C28.7406 38.8786 28.8003 38.8718 28.8586 38.8572C30.0313 38.5634 32.6208 36.5299 33.2248 34.4053C33.5234 33.3545 33.3041 32.4113 32.5905 31.6781C31.5685 30.6278 29.8797 30.6017 28.8258 31.6199V31.6199ZM31.9033 34.0299C31.476 35.5331 29.5681 37.0998 28.7029 37.4636C27.8493 37.0734 25.9907 35.4486 25.6101 33.9329C25.4646 33.3533 25.5728 32.9134 25.9507 32.5483C26.2061 32.3015 26.5385 32.1812 26.869 32.1863C27.1994 32.1914 27.528 32.3218 27.7758 32.5765L27.7758 32.5765C28.3293 33.1451 29.2099 33.1588 29.7806 32.6074C30.2915 32.1138 31.1103 32.1264 31.6058 32.6355C31.9721 33.0121 32.0666 33.4551 31.9033 34.0299V34.0299Z" fill="#629CD8" fill-opacity="0.45"/>
<path d="M28.3721 22.1173C28.1588 22.431 28.2403 22.858 28.554 23.0712C28.6691 23.1494 28.7994 23.188 28.9289 23.19C29.1523 23.1935 29.3731 23.088 29.5082 22.8895C30.7605 21.0479 30.0208 20.0394 29.5313 19.372C29.1026 18.7874 28.8665 18.4654 29.5929 17.3972C29.8062 17.0836 29.7247 16.6566 29.4111 16.4433C29.0974 16.2301 28.6701 16.3115 28.4568 16.6251C27.185 18.4953 27.9303 19.5114 28.4234 20.1839C28.86 20.7791 29.0791 21.0779 28.3721 22.1173V22.1173Z" fill="#629CD8" fill-opacity="0.45"/>
<path d="M22.8775 22.0327C22.6642 22.3464 22.7457 22.7734 23.0593 22.9866C23.1744 23.0648 23.3048 23.1034 23.4342 23.1054C23.6577 23.1089 23.8785 23.0034 24.0135 22.8049C25.2659 20.9633 24.5263 19.9548 24.0368 19.2874C23.608 18.7028 23.3719 18.3808 24.0983 17.3126C24.3116 16.999 24.2301 16.572 23.9164 16.3587C23.6028 16.1456 23.1754 16.2269 22.9622 16.5405C21.6904 18.4107 22.4356 19.4268 22.9288 20.0992C23.3654 20.6945 23.5845 20.9933 22.8775 22.0327V22.0327Z" fill="#629CD8" fill-opacity="0.45"/>
<path d="M33.8669 22.2024C33.6536 22.516 33.735 22.943 34.0487 23.1563C34.1638 23.2345 34.2942 23.2731 34.4236 23.2751C34.6471 23.2785 34.8679 23.1731 35.0029 22.9745C36.2553 21.1329 35.5156 20.1244 35.0261 19.457C34.5974 18.8725 34.3613 18.5504 35.0877 17.4823C35.3009 17.1686 35.2195 16.7416 34.9059 16.5284C34.5921 16.3152 34.1649 16.3967 33.9516 16.7101C32.6797 18.5803 33.425 19.5965 33.9182 20.2689C34.3548 20.8642 34.5739 21.1629 33.8669 22.2024V22.2024Z" fill="#629CD8" fill-opacity="0.45"/>
<path d="M28.6055 43.7864L28.605 43.7863C28.2257 43.7805 27.9137 44.0832 27.9079 44.4623C27.902 44.8414 28.205 45.1536 28.5843 45.1594C28.9636 45.1653 29.2758 44.8626 29.2817 44.4835C29.2875 44.1044 28.9848 43.7922 28.6055 43.7864Z" fill="#629CD8" fill-opacity="0.45"/>
<path d="M43.2812 26.3431C43.298 26.0829 43.3089 25.8211 43.313 25.5573C43.3305 24.4216 42.4205 23.4834 41.2844 23.4659L16.5593 23.0845C15.4232 23.067 14.4846 23.9767 14.4671 25.1124C14.4045 29.1696 15.9066 32.8397 17.3593 36.3889C18.1933 38.4265 18.9859 40.3644 19.5008 42.3576L19.0098 42.35C17.8737 42.3325 16.9352 43.2421 16.9176 44.3778C16.9001 45.5135 17.8101 46.4517 18.9463 46.4692L38.1769 46.7658C39.313 46.7833 40.2515 45.8737 40.2691 44.738C40.2866 43.6023 39.3766 42.6641 38.2404 42.6466L37.7496 42.639C37.8832 42.1807 38.0314 41.7258 38.1918 41.2724L41.833 41.3286C45.9988 41.3928 49.4402 38.0573 49.5045 33.8932C49.5617 30.1881 46.8737 26.9882 43.2812 26.3431ZM42.5498 30.3976C44.1752 30.6884 45.4098 32.1368 45.3836 33.8296C45.3544 35.7224 43.7901 37.2386 41.8966 37.2094L39.8786 37.1782C39.9435 37.0324 40.0087 36.8862 40.0741 36.7393C40.9888 34.6876 41.9213 32.5947 42.5498 30.3976V30.3976ZM31.7156 42.5459C31.3362 42.5401 31.024 42.8428 31.0182 43.2219C31.0123 43.601 31.315 43.9132 31.6944 43.919L38.2192 44.0197C38.598 44.0255 38.9013 44.3382 38.8955 44.7168C38.8896 45.0953 38.5768 45.3986 38.1981 45.3927L18.9674 45.0961C18.5887 45.0903 18.2854 44.7776 18.2912 44.399C18.2971 44.0204 18.6099 43.7172 18.9886 43.7231L25.5131 43.8237C25.8924 43.8295 26.2047 43.5268 26.2105 43.1477C26.2164 42.7686 25.9136 42.4565 25.5343 42.4506L20.9222 42.3795C20.384 40.1532 19.4939 37.9776 18.6308 35.869C17.2305 32.4476 15.7824 28.9097 15.8407 25.1335C15.8466 24.755 16.1594 24.4518 16.5381 24.4576L41.2632 24.8389C41.6419 24.8448 41.9452 25.1575 41.9394 25.5361C41.8811 29.3122 40.3245 32.8038 38.8193 36.1804C37.8916 38.2614 36.9345 40.4087 36.3279 42.6171L31.7156 42.5459ZM41.8542 39.9555L38.7093 39.907C38.8912 39.4534 39.0819 38.9992 39.2791 38.5424L41.8754 38.5824C44.5264 38.6233 46.7163 36.5008 46.7573 33.8508C46.7933 31.5149 45.1148 29.5117 42.8878 29.0646C42.986 28.6188 43.0698 28.1685 43.1362 27.7129C46.0266 28.2804 48.1771 30.874 48.1309 33.872C48.0783 37.279 45.2626 40.0081 41.8542 39.9555Z" fill="url(#paint1_linear)"/>
<path d="M28.8456 30.332C28.8316 30.3456 28.8124 30.3642 28.7801 30.331L28.7801 30.331C27.7581 29.2807 26.0693 29.2546 25.0155 30.273C24.2796 30.984 24.0312 31.9198 24.2973 32.9793C24.8353 35.1214 27.3609 37.234 28.5239 37.5638C28.5817 37.5802 28.6412 37.5888 28.7008 37.5898C28.7604 37.5907 28.8201 37.5838 28.8784 37.5692C30.0511 37.2755 32.6406 35.2419 33.2445 33.1173C33.5432 32.0665 33.3238 31.1234 32.6103 30.3901C31.5882 29.3398 29.8995 29.3137 28.8456 30.332V30.332ZM31.923 32.742C31.4958 34.2452 29.5879 35.8118 28.7227 36.1756C27.8691 35.7854 26.0105 34.1606 25.6299 32.6449C25.4843 32.0653 25.5925 31.6254 25.9704 31.2603C26.2259 31.0136 26.5582 30.8932 26.8887 30.8983C27.2192 30.9034 27.5478 31.0339 27.7956 31.2885L27.7956 31.2886C28.3491 31.8572 29.2297 31.8708 29.8004 31.3194C30.3113 30.8258 31.1301 30.8384 31.6255 31.3476C31.9919 31.7241 32.0863 32.1672 31.923 32.742V32.742Z" fill="url(#paint2_linear)"/>
<path d="M28.392 20.8294C28.1787 21.143 28.2602 21.57 28.5739 21.7833C28.689 21.8615 28.8193 21.9001 28.9488 21.9021C29.1722 21.9055 29.393 21.8 29.5281 21.6015C30.7804 19.7599 30.0407 18.7514 29.5512 18.084C29.1225 17.4995 28.8864 17.1775 29.6128 16.1093C29.8261 15.7956 29.7446 15.3686 29.431 15.1554C29.1173 14.9422 28.69 15.0236 28.4767 15.3371C27.2049 17.2073 27.9502 18.2234 28.4433 18.8959C28.8799 19.4912 29.099 19.7899 28.392 20.8294V20.8294Z" fill="url(#paint3_linear)"/>
<path d="M22.8971 20.7448C22.6838 21.0584 22.7653 21.4854 23.079 21.6987C23.1941 21.7769 23.3244 21.8155 23.4539 21.8175C23.6773 21.8209 23.8982 21.7154 24.0332 21.5169C25.2855 19.6753 24.5459 18.6668 24.0564 17.9994C23.6277 17.4149 23.3916 17.0928 24.118 16.0247C24.3312 15.711 24.2498 15.284 23.9361 15.0708C23.6224 14.8576 23.1951 14.939 22.9818 15.2525C21.71 17.1227 22.4553 18.1389 22.9485 18.8113C23.385 19.4066 23.6042 19.7053 22.8971 20.7448V20.7448Z" fill="url(#paint4_linear)"/>
<path d="M33.8867 20.9144C33.6734 21.228 33.7548 21.655 34.0685 21.8683C34.1836 21.9465 34.314 21.9851 34.4434 21.9871C34.6669 21.9906 34.8876 21.8851 35.0227 21.6866C36.2751 19.845 35.5354 18.8365 35.0459 18.1691C34.6172 17.5845 34.3811 17.2625 35.1075 16.1943C35.3207 15.8807 35.2393 15.4537 34.9256 15.2404C34.6119 15.0272 34.1847 15.1087 33.9714 15.4222C32.6995 17.2924 33.4448 18.3085 33.9379 18.9809C34.3746 19.5762 34.5937 19.8749 33.8867 20.9144V20.9144Z" fill="url(#paint5_linear)"/>
<path d="M28.6251 42.4983L28.6246 42.4983C28.2453 42.4924 27.9334 42.7951 27.9275 43.1742C27.9217 43.5533 28.2246 43.8655 28.6039 43.8713C28.9833 43.8772 29.2955 43.5745 29.3013 43.1954C29.3072 42.8163 29.0044 42.5041 28.6251 42.4983Z" fill="url(#paint6_linear)"/>
<defs>
<linearGradient id="paint0_linear" x1="29.8209" y1="0" x2="29.8209" y2="60.7046" gradientUnits="userSpaceOnUse">
<stop stop-color="#3192D3"/>
<stop offset="1" stop-color="#BAAFE1"/>
</linearGradient>
<linearGradient id="paint1_linear" x1="32.0812" y1="23.3239" x2="31.7212" y2="46.6662" gradientUnits="userSpaceOnUse">
<stop stop-color="white"/>
<stop offset="1" stop-color="white"/>
</linearGradient>
<linearGradient id="paint2_linear" x1="28.8248" y1="29.5558" x2="28.7009" y2="37.5898" gradientUnits="userSpaceOnUse">
<stop stop-color="white"/>
<stop offset="1" stop-color="white"/>
</linearGradient>
<linearGradient id="paint3_linear" x1="29.049" y1="15.0365" x2="28.9431" y2="21.902" gradientUnits="userSpaceOnUse">
<stop stop-color="white"/>
<stop offset="1" stop-color="white"/>
</linearGradient>
<linearGradient id="paint4_linear" x1="23.5542" y1="14.9519" x2="23.4483" y2="21.8174" gradientUnits="userSpaceOnUse">
<stop stop-color="white"/>
<stop offset="1" stop-color="white"/>
</linearGradient>
<linearGradient id="paint5_linear" x1="34.5437" y1="15.1216" x2="34.4378" y2="21.987" gradientUnits="userSpaceOnUse">
<stop stop-color="white"/>
<stop offset="1" stop-color="white"/>
</linearGradient>
<linearGradient id="paint6_linear" x1="28.625" y1="42.4983" x2="28.6038" y2="43.8713" gradientUnits="userSpaceOnUse">
<stop stop-color="white"/>
<stop offset="1" stop-color="white"/>
</linearGradient>
</defs>
</svg>
