<svg width="112" height="115" viewBox="0 0 112 115" fill="none" xmlns="http://www.w3.org/2000/svg">
<path d="M99.2371 28.6755C98.3764 28.3694 97.6799 27.6727 97.3736 26.812C95.8957 22.6579 93.428 20.2753 90.6031 20.2753C88.0772 20.2753 85.8397 22.1843 84.3371 25.5567V13.8151L56.1182 0L27.8994 13.8151V100.702L56.1182 114.517L70.8009 107.329L69.134 103.924L59.6888 108.548L66.8624 90.476L78.6133 99.2836L72.9407 102.061L74.6076 105.465L84.3371 100.702V45.3354C85.8395 48.7076 88.0772 50.6166 90.6031 50.6166C93.428 50.6166 95.8957 48.234 97.3736 44.0802C97.6796 43.2194 98.3764 42.5227 99.2371 42.2167C103.391 40.7388 105.774 38.271 105.774 35.4459C105.774 32.6211 103.391 30.1531 99.2371 28.6755ZM80.5464 41.6392V95.9953L67.9106 86.5246V27.9924L80.5464 18.5217V29.2527C77.2765 30.7541 75.4324 32.9615 75.4324 35.4459C75.4324 37.9304 77.2765 40.1378 80.5464 41.6392ZM45.0744 90.6112L52.4577 108.504L33.6105 99.2773L45.0744 90.6112ZM48.7299 89.5321L63.2132 89.3946L56.0841 107.355L48.7299 89.5321ZM47.7251 85.7507V46.1706H43.9344V86.7209L31.6901 95.9771V18.5399L43.9344 27.796V42.364H47.7251V28.7665L64.1199 28.9219V85.5953L47.7251 85.7507ZM66.9157 24.001L59.7063 5.97745L78.6133 15.2336L66.9157 24.001ZM63.2819 25.1231L48.6594 24.9843L56.0841 7.12882L63.2819 25.1231ZM45.0195 23.8643L33.6102 15.2397L52.4387 6.02193L45.0195 23.8643ZM97.9667 38.6451C96.0145 39.3393 94.4964 40.8573 93.802 42.8095C92.8151 45.5841 91.4843 46.8259 90.6031 46.8259C89.7219 46.8259 88.3911 45.5841 87.404 42.8095C86.7096 40.8571 85.1915 39.3393 83.2395 38.6451C80.465 37.6582 79.2231 36.3272 79.2231 35.4459C79.2231 34.565 80.465 33.2339 83.2393 32.2471C85.1917 31.5529 86.7096 30.0348 87.404 28.0826C88.3911 25.3081 89.7219 24.066 90.6031 24.066C91.4841 24.066 92.8151 25.3078 93.802 28.0826C94.4964 30.0351 96.0145 31.5529 97.9665 32.2471C100.741 33.2339 101.983 34.565 101.983 35.4459C101.983 36.3272 100.741 37.6582 97.9667 38.6451Z" fill="white"/>
<path d="M8.99072 50.1246H12.7744V57.2006H8.99072V50.1246Z" fill="white"/>
<path d="M14.6895 59.1099H21.7655V62.8938H14.6895V59.1099Z" fill="white"/>
<path d="M8.99072 64.8981H12.7744V71.9741H8.99072V64.8981Z" fill="white"/>
<path d="M0 59.1099H7.076V62.8938H0V59.1099Z" fill="white"/>
<path d="M99.2261 92.2648H103.01V99.3408H99.2261V92.2648Z" fill="white"/>
<path d="M104.924 101.25H112V105.034H104.924V101.25Z" fill="white"/>
<path d="M99.2261 107.038H103.01V114.114H99.2261V107.038Z" fill="white"/>
<path d="M90.2354 101.25H97.3113V105.034H90.2354V101.25Z" fill="white"/>
<path d="M10.6455 4.31848H14.4362V8.10237H10.6455V4.31848Z" fill="white"/>
<path d="M105.635 70.5135H109.425V74.2974H105.635V70.5135Z" fill="white"/>
<path d="M10.6455 97.0647H14.4362V100.849H10.6455V97.0647Z" fill="white"/>
<path d="M55.9582 79.7501H52.1675V76.1646H55.9582V79.7501ZM55.9582 72.3741H52.1675V68.5834H55.9582V72.3741ZM55.9582 64.7927H52.1675V61.002H55.9582V64.7927Z" fill="white"/>
</svg>
